# AST/ASF file generated using VICON BodyLanguage
# -----------------------------------------------
:version 1.10
:name VICON
:units
  mass 1.0
  length 0.45
  angle deg
:documentation
   .ast/.asf automatically generated from VICON data using
   VICON BodyBuilder and BodyLanguage model FoxedUp or BRILLIANT.MOD
:root
   order TX TY TZ RX RY RZ
   axis XYZ
   position 0 0 0  
   orientation 0 0 0 
:bonedata
  begin
     id 1 
     name lhipjoint
     direction 0.671379 -0.66392 0.329334 
     length 2.38647 
     axis 0 0 0  XYZ
  end
  begin
     id 2 
     name lfemur
     direction 0.34202 -0.939693 0  
     length 6.48179  
     axis 0 0 20  XYZ
    dof rx ry rz
    limits (-160.0 20.0)
           (-70.0 70.0)
           (-60.0 70.0)
  end
  begin
     id 3 
     name ltibia
     direction 0.34202 -0.939693 0   
     length 6.86524   
     axis 0 0 20   XYZ
    dof rx
    limits (-10.0 170.0)
  end
  begin
     id 4 
     name lfoot
     direction 0.204886 -0.562919 0.800715   
     length 1.73031   
     axis -90 7.62852e-016 20   XYZ
    dof rx rz
    limits (-45.0 90.0)
           (-70.0 20.0)
  end
  begin
     id 5 
     name ltoes
     direction 1.53548e-011 -4.21841e-011 1   
     length 0.828161   
     axis -90 7.62852e-016 20   XYZ
    dof rx
    limits (-90.0 20.0)
  end
  begin
     id 6 
     name rhipjoint
     direction -0.662732 -0.670855 0.332775   
     length 2.3618  
     axis 0 0 0  XYZ 
  end
  begin
     id 7 
     name rfemur
     direction -0.34202 -0.939693 0   
     length 6.3025   
     axis 0 0 -20   XYZ
    dof rx ry rz
    limits (-160.0 20.0)
           (-70.0 70.0)
           (-70.0 60.0)
  end
  begin
     id 8 
     name rtibia
     direction -0.34202 -0.939693 0   
     length 6.8732   
     axis 0 0 -20   XYZ
    dof rx
    limits (-10.0 170.0)
 end
 begin
     id 9 
     name rfoot
     direction -0.173856 -0.477665 0.861168   
     length 1.54784  
     axis -90 -7.62852e-016 -20   XYZ
    dof rx rz
    limits (-45.0 90.0)
           (-20.0 70.0)
  end
  begin
     id 10 
     name rtoes
     direction -1.53562e-011 -4.21802e-011 1   
     length 0.759618   
     axis -90 -7.62852e-016 -20   XYZ
    dof rx
    limits (-90.0 20.0)
  end
  begin
     id 11 
     name lowerback
     direction -0.0278357 0.999497 -0.0151789   
     length 1.97203   
     axis 0 0 0   XYZ
    dof rx ry rz
    limits (-20.0 45.0)
           (-30.0 30.0)
           (-30.0 30.0)
  end
  begin
     id 12 
     name upperback
     direction -0.00360622 0.997542 0.0699804   
     length 1.94709   
     axis 0 0 0   XYZ
    dof rx ry rz
    limits (-20.0 45.0)
           (-30.0 30.0)
           (-30.0 30.0)
  end
  begin
     id 13 
     name thorax
     direction 0.00907706 0.997048 0.0762461   
     length 1.95722   
     axis 0 0 0   XYZ
    dof rx ry rz
    limits (-20.0 45.0)
           (-30.0 30.0)
           (-30.0 30.0)
  end
  begin
     id 14 
     name lowerneck
     direction -0.0481835 0.99872 -0.0153927   
     length 1.63078   
     axis 0 0 0   XYZ
    dof rx ry rz
    limits (-20.0 45.0)
           (-30.0 30.0)
           (-30.0 30.0)
  end
  begin
     id 15 
     name upperneck
     direction 0.0859716 0.979226 -0.183644   
     length 1.62591   
     axis 0 0 0   XYZ
    dof rx ry rz
    limits (-20.0 45.0)
           (-30.0 30.0)
           (-30.0 30.0)
  end
  begin
     id 16
     name head
     direction 0.0324821 0.997629 -0.0606773  
     length 1.64811  
     axis 0 0 0   XYZ
    dof rx ry rz
    limits (-20.0 45.0)
           (-30.0 30.0)
           (-30.0 30.0)
  end
  begin
     id 17 
     name lclavicle
     direction 0.939609 0.311019 0.142835  
     length 3.70647  
     axis 0 0 0   XYZ
    dof ry rz
    limits (-20.0 10.0)
           (0.0 20.0)
  end
  begin
     id 18 
     name lhumerus
     direction 1 -4.48963e-011 -1.59838e-027   
     length 4.59207   
     axis 180 -30 -90   XYZ
    dof rx ry rz
    limits (-60.0 90.0)
           (-90.0 90.0)
           (-90.0 90.0)
  end
  begin
     id 19
     name lradius
     direction 1 -4.48957e-011 -1.3483e-026   
     length 2.98109   
     axis 180 -30 -90   XYZ
    dof rx
    limits (-10.0 170.0)
  end
  begin
     id 20
     name lwrist
     direction 1 -4.48954e-011 -3.11579e-026   
     length 1.49055   
     axis 2.00652e-014 90 90   XYZ
    dof ry
    limits (-180.0 0.0)
 end
  begin
     id 21 
     name lhand
     direction 1 -4.4911e-011 -6.23158e-026   
     length 0.480203   
     axis 3.97628e-014 90 90   XYZ
    dof rx rz
    limits (-90.0 90.0)
           (-45.0 45.0)
  end
  begin
     id 22 
     name lfingers
     direction 1 -4.48893e-011 -1.24632e-025   
     length 0.387152   
     axis 7.95256e-014 90 90   XYZ
    dof rx
    limits (0.0 90.0)
  end
  begin
     id 23
     name lthumb
     direction 0.707107 -6.35013e-011 0.707107   
     length 0.555875   
     axis -90 45 2.85299e-015   XYZ
    dof rx rz
    limits (-45.0 45.0)
           (-45.0 45.0)
  end
  begin
     id 24 
     name rclavicle
     direction -0.950396 0.30392 0.0661859   
     length 3.70894  
     axis 0 0 0   XYZ 
    dof ry rz
    limits (-10.0 20.0)
           (-20.0 0.0)
  end
  begin
     id 25 
     name rhumerus
     direction -1 -4.48957e-011 -2.96677e-027  
     length 4.76508   
     axis 180 30 90   XYZ
    dof rx ry rz
    limits (-90.0 60.0)
           (-90.0 90.0)
           (-90.0 90.0)
  end
  begin
     id 26 
     name rradius
     direction -1 -4.48974e-011 -1.44501e-026   
     length 2.78902   
     axis 180 30 90   XYZ
    dof rx
    limits (-10.0 170.0)
  end
  begin
     id 27 
     name rwrist
     direction -1 -4.48978e-011 -3.11579e-026   
     length 1.39451   
     axis 2.00652e-014 -90 -90   XYZ
    dof ry
    limits (-180.0 0.0)
  end
  begin
     id 28
     name rhand
     direction -1 -4.48956e-011 -6.23158e-026   
     length 0.721303   
     axis 3.97628e-014 -90 -90   XYZ
    dof rx rz
    limits (-90.0 90.0)
           (-45.0 45.0)
  end
  begin
     id 29
     name rfingers
     direction -1 -4.4899e-011 -1.24632e-025   
     length 0.581533   
     axis 7.95256e-014 -90 -90   XYZ
    dof rx
    limits (0.0 90.0)
  end
  begin
     id 30
     name rthumb
     direction -0.707107 -6.34911e-011 0.707107   
     length 0.834968   
     axis -90 -45 -2.85299e-015   XYZ
    dof rx rz
    limits (-45.0 45.0)
           (-45.0 45.0)
  end
:hierarchy
  begin
    root lhipjoint rhipjoint lowerback
    lhipjoint lfemur
    lfemur ltibia
    ltibia lfoot
    lfoot ltoes
    rhipjoint rfemur
    rfemur rtibia
    rtibia rfoot
    rfoot rtoes
    lowerback upperback
    upperback thorax
    thorax lowerneck lclavicle rclavicle
    lowerneck upperneck
    upperneck head
    lclavicle lhumerus
    lhumerus lradius
    lradius lwrist
    lwrist lhand lthumb
    lhand lfingers
    rclavicle rhumerus
    rhumerus rradius
    rradius rwrist
    rwrist rhand rthumb
    rhand rfingers
  end

#!OML:ASF I:\salsa\salsa 7_09\Patient 1\Session 1\dancerfemale.ASF
:FULLY-SPECIFIED
:DEGREES
887
root 22.4206 16.028 -2.84674 -111.847 -447.869 115.405
lowerback 16.2906 2.27042 -9.14357
upperback -5.02298 1.18961 1.29451
thorax -15.2575 1.50041 6.34008
lowerneck 2.40637 -0.892527 -10.5093
upperneck 7.98117 -1.87929 8.0608
head 2.1325 -1.10791 4.13188
rclavicle 7.06617e-015 2.78299e-015
rhumerus -40.3345 1.00176 -92.2779
rradius 68.4791
rwrist -11.6376
rhand 6.28611 57.3666
rfingers 7.12502
rthumb 31.5959 30.0805
lclavicle 7.06617e-015 2.78299e-015
lhumerus 26.6949 38.5914 50.077
lradius 70.8834
lwrist -34.6068
lhand -4.39074 43.3478
lfingers 7.12502
lthumb 21.3787 432.188
rfemur -30.2848 -2.32835 19.8623
rtibia 45.9876
rfoot -18.8017 -1.93435
rtoes -17.7324
lfemur -12.6271 4.90097 -30.0304
ltibia 41.823
lfoot -15.5417 2.4897
ltoes -30.0034
888
root 22.4141 16.013 -2.856 -103.391 -446.905 106.538
lowerback 16.8475 2.24407 -9.02977
upperback -4.77818 0.985674 0.29892
thorax -15.2316 1.31376 5.18134
lowerneck 2.16361 -1.13918 -10.8772
upperneck 7.97949 -2.25247 9.04685
head 2.21518 -1.27656 4.49073
rclavicle 1.10501e-014 4.57205e-015
rhumerus -40.045 1.31304 -94.2446
rradius 69.3582
rwrist -11.1171
rhand 6.79585 57.2779
rfingers 7.12502
rthumb 32.0814 30.0883
lclavicle 1.10501e-014 4.57205e-015
lhumerus 29.3229 37.0963 51.9214
lradius 69.9941
lwrist -33.4273
lhand -6.15293 42.0172
lfingers 7.12502
lthumb 19.6853 431.041
rfemur -29.7284 -1.71139 18.583
rtibia 45.3267
rfoot -19.1511 -1.33706
rtoes -15.152
lfemur -11.7335 5.71962 -30.9461
ltibia 41.0989
lfoot -15.358 1.8204
ltoes -29.9986
889
root 22.4021 15.9903 -2.86755 -95.5985 -445.829 98.6036
lowerback 16.9645 2.09308 -9.17053
upperback -4.49205 0.611792 -0.607091
thorax -14.883 1.06582 4.33477
lowerneck 1.65437 -1.39232 -11.2618
upperneck 8.19802 -2.60485 9.79377
head 2.40875 -1.43453 4.77733
rclavicle -1.50952e-015 1.60022e-014
rhumerus -39.3515 2.56649 -96.1727
rradius 69.6328
rwrist -11.0603
rhand 6.53358 57.3582
rfingers 7.12502
rthumb 31.8316 30.1186
lclavicle -1.50952e-015 1.60022e-014
lhumerus 30.2843 35.0746 52.2249
lradius 68.9136
lwrist -30.3464
lhand -8.38255 41.3364
lfingers 7.12502
lthumb 17.5407 430.565
rfemur -29.4418 -1.265 17.2414
rtibia 44.763
rfoot -18.8958 -0.315459
rtoes -10.3997
lfemur -11.1772 6.49181 -31.9191
ltibia 40.504
lfoot -15.1806 1.04265
ltoes -30.4486
890
root 22.3831 15.9599 -2.88332 -92.7798 -444.608 95.7938
lowerback 16.9105 1.9648 -9.45484
upperback -4.29645 0.236147 -1.57586
thorax -14.5595 0.82921 3.50527
lowerneck 1.18435 -1.61814 -11.6686
upperneck 8.59084 -2.9505 10.6359
head 2.65174 -1.58925 5.0989
rclavicle 7.45443e-017 1.2921e-014
rhumerus -38.4608 4.56671 -98.1678
rradius 69.3854
rwrist -11.2379
rhand 5.87884 57.5252
rfingers 7.12502
rthumb 31.2079 30.1636
lclavicle 7.45443e-017 1.2921e-014
lhumerus 31.3943 33.1952 52.7577
lradius 67.6447
lwrist -26.7939
lhand -9.27423 40.4421
lfingers 7.12502
lthumb 16.6824 429.745
rfemur -29.2705 -0.946265 15.9312
rtibia 44.2522
rfoot -18.1209 0.715042
rtoes -4.25529
lfemur -10.8505 7.53703 -32.9402
ltibia 40.0882
lfoot -15.2247 0.0235307
ltoes -30.952
891
root 22.3566 15.9272 -2.89477 -89.4894 -443.516 92.7556
lowerback 16.0478 1.83089 -9.92124
upperback -3.85029 -0.0160904 -2.26819
thorax -13.4803 0.646631 3.07603
lowerneck 0.786399 -1.94936 -12.1501
upperneck 8.64714 -3.40112 11.2744
head 2.80118 -1.79806 5.36481
rclavicle -1.02374e-014 1.15295e-014
rhumerus -37.0209 7.02576 -99.4797
rradius 69.2529
rwrist -11.3816
rhand 5.72406 57.4547
rfingers 7.12502
rthumb 31.0603 30.0648
lclavicle -1.02374e-014 1.15295e-014
lhumerus 33.1782 31.8133 54.5087
lradius 66.1592
lwrist -23.3287
lhand -8.50975 39.2566
lfingers 7.12502
lthumb 17.4183 428.496
rfemur -29.1527 -0.928553 14.8496
rtibia 43.7251
rfoot -17.1884 1.48223
rtoes 3.40849
lfemur -10.8456 8.49054 -33.8361
ltibia 39.8651
lfoot -15.3028 -1.23788
ltoes -30.9426
892
root 22.3239 15.9037 -2.90546 -85.3298 -442.696 89.0894
lowerback 15.2975 1.48284 -9.80833
upperback -3.69558 -0.474547 -3.08573
thorax -12.794 0.339118 2.23419
lowerneck 0.35162 -2.20578 -12.5707
upperneck 9.08334 -3.80603 12.133
head 3.06939 -1.97933 5.69335
rclavicle 1.2424e-015 3.97569e-016
rhumerus -36.0354 9.13186 -101.045
rradius 69.2788
rwrist -11.2582
rhand 5.88521 57.4461
rfingers 7.12502
rthumb 31.2139 30.0856
lclavicle 1.2424e-015 3.97569e-016
lhumerus 34.4102 30.2323 55.4434
lradius 64.4906
lwrist -19.6291
lhand -6.63349 38.8462
lfingers 7.12502
lthumb 19.2233 427.916
rfemur -29.0126 -0.864419 14.0722
rtibia 43.1126
rfoot -19.0409 -0.39257
rtoes -0.244265
lfemur -11.1869 9.15566 -34.4846
ltibia 39.8308
lfoot -15.2935 -2.44087
ltoes -30.5832
